<mxfile host="app.diagrams.net" modified="2024-11-13T11:12:09.003Z" agent="Mozilla/5.0 (Windows NT 10.0; Win64; x64) AppleWebKit/537.36 (KHTML, like Gecko) Chrome/130.0.0.0 Safari/537.36" etag="SRbWAY9Y7ACN_QGHs_fE" version="24.3.1" type="device" pages="2">
  <diagram name="Page-1" id="cgD4QJ-wR_yiHozVtR_r">
    <mxGraphModel dx="1434" dy="772" grid="1" gridSize="10" guides="1" tooltips="1" connect="1" arrows="1" fold="1" page="1" pageScale="1" pageWidth="850" pageHeight="1100" math="0" shadow="0">
      <root>
        <mxCell id="0" />
        <mxCell id="1" parent="0" />
        <mxCell id="XZuy0qffb0nQQuMf2KQB-1" value="AWS Cloud" style="points=[[0,0],[0.25,0],[0.5,0],[0.75,0],[1,0],[1,0.25],[1,0.5],[1,0.75],[1,1],[0.75,1],[0.5,1],[0.25,1],[0,1],[0,0.75],[0,0.5],[0,0.25]];outlineConnect=0;gradientColor=none;html=1;whiteSpace=wrap;fontSize=12;fontStyle=0;container=1;pointerEvents=0;collapsible=0;recursiveResize=0;shape=mxgraph.aws4.group;grIcon=mxgraph.aws4.group_aws_cloud_alt;strokeColor=#232F3E;fillColor=none;verticalAlign=top;align=left;spacingLeft=30;fontColor=#232F3E;dashed=0;sketch=1;curveFitting=1;jiggle=2;" vertex="1" parent="1">
          <mxGeometry x="20" y="30" width="400" height="240" as="geometry" />
        </mxCell>
        <mxCell id="XZuy0qffb0nQQuMf2KQB-2" value="&lt;span style=&quot;color: rgb(51, 65, 85); font-family: Inter, &amp;quot;Helvetica Neue&amp;quot;, Helvetica, Arial, sans-serif; font-size: 14px; font-weight: 600; letter-spacing: -0.144px; text-wrap-mode: nowrap; background-color: rgb(249, 248, 255);&quot;&gt;Asia Pacific (Singapore) Region&lt;/span&gt;" style="points=[[0,0],[0.25,0],[0.5,0],[0.75,0],[1,0],[1,0.25],[1,0.5],[1,0.75],[1,1],[0.75,1],[0.5,1],[0.25,1],[0,1],[0,0.75],[0,0.5],[0,0.25]];outlineConnect=0;gradientColor=none;html=1;whiteSpace=wrap;fontSize=12;fontStyle=0;container=1;pointerEvents=0;collapsible=0;recursiveResize=0;shape=mxgraph.aws4.group;grIcon=mxgraph.aws4.group_region;strokeColor=#00A4A6;fillColor=none;verticalAlign=top;align=left;spacingLeft=30;fontColor=#147EBA;dashed=1;strokeWidth=2;" vertex="1" parent="XZuy0qffb0nQQuMf2KQB-1">
          <mxGeometry x="30" y="40" width="330" height="170" as="geometry" />
        </mxCell>
        <mxCell id="XZuy0qffb0nQQuMf2KQB-11" value="" style="curved=1;endArrow=classic;html=1;rounded=0;entryX=0;entryY=0.5;entryDx=0;entryDy=0;strokeWidth=2;sketch=1;curveFitting=1;jiggle=2;" edge="1" parent="XZuy0qffb0nQQuMf2KQB-1" target="XZuy0qffb0nQQuMf2KQB-9">
          <mxGeometry width="50" height="50" relative="1" as="geometry">
            <mxPoint x="360" y="130" as="sourcePoint" />
            <mxPoint x="410" y="80" as="targetPoint" />
            <Array as="points">
              <mxPoint x="410" y="130" />
              <mxPoint x="440" y="80" />
              <mxPoint x="490" y="90" />
            </Array>
          </mxGeometry>
        </mxCell>
        <mxCell id="XZuy0qffb0nQQuMf2KQB-9" value="&lt;h1 style=&quot;margin-top: 0px;&quot;&gt;&lt;div style=&quot;color: #d4d4d4;background-color: #1e1e1e;font-family: Consolas, &#39;Courier New&#39;, monospace;font-weight: normal;font-size: 14px;line-height: 20px;white-space: pre;&quot;&gt;&lt;div&gt;&lt;span style=&quot;color: #3dc9b0;&quot;&gt;terraform&lt;/span&gt; &lt;span style=&quot;color: #dcdcdc;&quot;&gt;{&lt;/span&gt;&lt;/div&gt;&lt;div&gt;&amp;nbsp; required_providers &lt;span style=&quot;color: #dcdcdc;&quot;&gt;{&lt;/span&gt;&lt;/div&gt;&lt;div&gt;&amp;nbsp; &amp;nbsp; &lt;span style=&quot;color: #74b0df;&quot;&gt;aws&lt;/span&gt; = &lt;span style=&quot;color: #dcdcdc;&quot;&gt;{&lt;/span&gt;&lt;/div&gt;&lt;div&gt;&amp;nbsp; &amp;nbsp; &amp;nbsp; &lt;span style=&quot;color: #74b0df;&quot;&gt;source&lt;/span&gt; &amp;nbsp;= &lt;span style=&quot;color: #ce9178;&quot;&gt;&quot;hashicorp/aws&quot;&lt;/span&gt;&lt;/div&gt;&lt;div&gt;&amp;nbsp; &amp;nbsp; &amp;nbsp; &lt;span style=&quot;color: #74b0df;&quot;&gt;version&lt;/span&gt; = &lt;span style=&quot;color: #ce9178;&quot;&gt;&quot;~&amp;gt;4&quot;&lt;/span&gt;&lt;/div&gt;&lt;div&gt;&amp;nbsp; &amp;nbsp; &lt;span style=&quot;color: #dcdcdc;&quot;&gt;}&lt;/span&gt;&lt;/div&gt;&lt;div&gt;&amp;nbsp; &lt;span style=&quot;color: #dcdcdc;&quot;&gt;}&lt;/span&gt;&lt;/div&gt;&lt;div&gt;&lt;span style=&quot;color: #dcdcdc;&quot;&gt;}&lt;/span&gt;&lt;/div&gt;&lt;div&gt;&lt;span style=&quot;color: #3dc9b0;&quot;&gt;provider&lt;/span&gt; &lt;span style=&quot;color: #ce9178;&quot;&gt;&quot;aws&quot;&lt;/span&gt; &lt;span style=&quot;color: #dcdcdc;&quot;&gt;{&lt;/span&gt;&lt;/div&gt;&lt;div&gt;&amp;nbsp; &lt;span style=&quot;color: #74b0df;&quot;&gt;region&lt;/span&gt; = &lt;span style=&quot;color: #ce9178;&quot;&gt;&quot;ap-southeast-1&quot;&lt;/span&gt;&lt;/div&gt;&lt;div&gt;&lt;span style=&quot;color: #dcdcdc;&quot;&gt;}&lt;/span&gt;&lt;/div&gt;&lt;/div&gt;&lt;/h1&gt;" style="text;html=1;whiteSpace=wrap;overflow=hidden;rounded=0;" vertex="1" parent="1">
          <mxGeometry x="560" y="35" width="240" height="230" as="geometry" />
        </mxCell>
        <mxCell id="XZuy0qffb0nQQuMf2KQB-12" value="Select Region" style="text;html=1;align=center;verticalAlign=middle;whiteSpace=wrap;rounded=0;fontStyle=5" vertex="1" parent="1">
          <mxGeometry x="635" y="265" width="90" height="30" as="geometry" />
        </mxCell>
        <mxCell id="XZuy0qffb0nQQuMf2KQB-16" value="AWS Cloud" style="points=[[0,0],[0.25,0],[0.5,0],[0.75,0],[1,0],[1,0.25],[1,0.5],[1,0.75],[1,1],[0.75,1],[0.5,1],[0.25,1],[0,1],[0,0.75],[0,0.5],[0,0.25]];outlineConnect=0;gradientColor=none;html=1;whiteSpace=wrap;fontSize=12;fontStyle=0;container=1;pointerEvents=0;collapsible=0;recursiveResize=0;shape=mxgraph.aws4.group;grIcon=mxgraph.aws4.group_aws_cloud_alt;strokeColor=#232F3E;fillColor=none;verticalAlign=top;align=left;spacingLeft=30;fontColor=#232F3E;dashed=0;textShadow=0;sketch=1;curveFitting=1;jiggle=2;" vertex="1" parent="1">
          <mxGeometry x="20" y="342" width="400" height="240" as="geometry" />
        </mxCell>
        <mxCell id="XZuy0qffb0nQQuMf2KQB-17" value="&lt;span style=&quot;color: rgb(51, 65, 85); font-family: Inter, &amp;quot;Helvetica Neue&amp;quot;, Helvetica, Arial, sans-serif; font-size: 14px; font-weight: 600; letter-spacing: -0.144px; text-wrap-mode: nowrap; background-color: rgb(249, 248, 255);&quot;&gt;Asia Pacific (Singapore) Region&lt;/span&gt;" style="points=[[0,0],[0.25,0],[0.5,0],[0.75,0],[1,0],[1,0.25],[1,0.5],[1,0.75],[1,1],[0.75,1],[0.5,1],[0.25,1],[0,1],[0,0.75],[0,0.5],[0,0.25]];outlineConnect=0;gradientColor=none;html=1;whiteSpace=wrap;fontSize=12;fontStyle=0;container=1;pointerEvents=0;collapsible=0;recursiveResize=0;shape=mxgraph.aws4.group;grIcon=mxgraph.aws4.group_region;strokeColor=#00A4A6;fillColor=none;verticalAlign=top;align=left;spacingLeft=30;fontColor=#147EBA;dashed=1;strokeWidth=2;sketch=1;curveFitting=1;jiggle=2;" vertex="1" parent="XZuy0qffb0nQQuMf2KQB-16">
          <mxGeometry x="20" y="40" width="360" height="180" as="geometry" />
        </mxCell>
        <mxCell id="XZuy0qffb0nQQuMf2KQB-19" value="&lt;b&gt;&lt;font color=&quot;#000000&quot;&gt;VPC&lt;/font&gt;&lt;/b&gt;" style="points=[[0,0],[0.25,0],[0.5,0],[0.75,0],[1,0],[1,0.25],[1,0.5],[1,0.75],[1,1],[0.75,1],[0.5,1],[0.25,1],[0,1],[0,0.75],[0,0.5],[0,0.25]];outlineConnect=0;gradientColor=none;html=1;whiteSpace=wrap;fontSize=12;fontStyle=0;container=1;pointerEvents=0;collapsible=0;recursiveResize=0;shape=mxgraph.aws4.group;grIcon=mxgraph.aws4.group_vpc2;strokeColor=#8C4FFF;fillColor=none;verticalAlign=top;align=left;spacingLeft=30;fontColor=#AAB7B8;dashed=0;" vertex="1" parent="XZuy0qffb0nQQuMf2KQB-17">
          <mxGeometry x="30" y="30" width="300" height="130" as="geometry" />
        </mxCell>
        <mxCell id="XZuy0qffb0nQQuMf2KQB-21" value="" style="curved=1;endArrow=classic;html=1;rounded=0;entryX=0;entryY=0.5;entryDx=0;entryDy=0;strokeWidth=2;sketch=1;curveFitting=1;jiggle=2;" edge="1" parent="1">
          <mxGeometry width="50" height="50" relative="1" as="geometry">
            <mxPoint x="371" y="476" as="sourcePoint" />
            <mxPoint x="551" y="466" as="targetPoint" />
            <Array as="points">
              <mxPoint x="421" y="476" />
              <mxPoint x="451" y="426" />
              <mxPoint x="501" y="436" />
            </Array>
          </mxGeometry>
        </mxCell>
        <mxCell id="XZuy0qffb0nQQuMf2KQB-22" value="&lt;h1 style=&quot;margin-top: 0px;&quot;&gt;&lt;div style=&quot;color: #d4d4d4;background-color: #1e1e1e;font-family: Consolas, &#39;Courier New&#39;, monospace;font-weight: normal;font-size: 14px;line-height: 20px;white-space: pre;&quot;&gt;&lt;div&gt;&lt;span style=&quot;color: #3dc9b0;&quot;&gt;resource&lt;/span&gt; &lt;span style=&quot;color: #ce9178;&quot;&gt;&quot;aws_vpc&quot;&lt;/span&gt; &lt;span style=&quot;color: #ce9178;&quot;&gt;&quot;two-tier-vpc&quot;&lt;/span&gt; &lt;span style=&quot;color: #dcdcdc;&quot;&gt;{&lt;/span&gt;&lt;/div&gt;&lt;div&gt;&amp;nbsp; &lt;span style=&quot;color: #74b0df;&quot;&gt;cidr_block&lt;/span&gt; = &lt;span style=&quot;color: #ce9178;&quot;&gt;&quot;10.0.0.0/16&quot;&lt;/span&gt;&lt;/div&gt;&lt;br&gt;&lt;div&gt;&amp;nbsp; &lt;span style=&quot;color: #74b0df;&quot;&gt;tags&lt;/span&gt; = &lt;span style=&quot;color: #dcdcdc;&quot;&gt;{&lt;/span&gt;&lt;/div&gt;&lt;div&gt;&amp;nbsp; &amp;nbsp; &lt;span style=&quot;color: #74b0df;&quot;&gt;Name&lt;/span&gt; = &lt;span style=&quot;color: #ce9178;&quot;&gt;&quot;two-tier-vpc&quot;&lt;/span&gt;&lt;/div&gt;&lt;div&gt;&amp;nbsp; &lt;span style=&quot;color: #dcdcdc;&quot;&gt;}&lt;/span&gt;&lt;/div&gt;&lt;div&gt;&lt;span style=&quot;color: #dcdcdc;&quot;&gt;}&lt;/span&gt;&lt;/div&gt;&lt;/div&gt;&lt;/h1&gt;" style="text;html=1;whiteSpace=wrap;overflow=hidden;rounded=0;" vertex="1" parent="1">
          <mxGeometry x="550" y="387" width="280" height="150" as="geometry" />
        </mxCell>
        <mxCell id="XZuy0qffb0nQQuMf2KQB-23" value="Setup VPC" style="text;html=1;align=center;verticalAlign=middle;whiteSpace=wrap;rounded=0;fontStyle=5" vertex="1" parent="1">
          <mxGeometry x="635" y="537" width="90" height="30" as="geometry" />
        </mxCell>
        <mxCell id="XZuy0qffb0nQQuMf2KQB-28" value="&lt;h1 style=&quot;margin-top: 0px;&quot;&gt;&lt;div style=&quot;color: rgb(212, 212, 212); background-color: rgb(30, 30, 30); font-family: Consolas, &amp;quot;Courier New&amp;quot;, monospace; line-height: 20px; white-space: pre;&quot;&gt;&lt;div style=&quot;font-size: 14px; font-weight: normal;&quot;&gt;&lt;span style=&quot;color: #3dc9b0;&quot;&gt;resource&lt;/span&gt; &lt;span style=&quot;color: #ce9178;&quot;&gt;&quot;aws_subnet&quot;&lt;/span&gt; &lt;span style=&quot;color: #ce9178;&quot;&gt;&quot;two-tier-pub-sub-1&quot;&lt;/span&gt; &lt;span style=&quot;color: #dcdcdc;&quot;&gt;{&lt;/span&gt;&lt;/div&gt;&lt;div style=&quot;font-size: 14px; font-weight: normal;&quot;&gt;&amp;nbsp; &lt;span style=&quot;color: #74b0df;&quot;&gt;vpc_id&lt;/span&gt; &amp;nbsp; &amp;nbsp; &amp;nbsp; &amp;nbsp; &amp;nbsp; &amp;nbsp; &amp;nbsp; &amp;nbsp; &amp;nbsp;= &lt;span style=&quot;color: #74b0df;&quot;&gt;aws_vpc&lt;/span&gt;&lt;span style=&quot;color: #dcdcdc;&quot;&gt;.&lt;/span&gt;&lt;span style=&quot;color: #74b0df;&quot;&gt;two-tier-vpc&lt;/span&gt;&lt;span style=&quot;color: #dcdcdc;&quot;&gt;.&lt;/span&gt;&lt;span style=&quot;color: #74b0df;&quot;&gt;id&lt;/span&gt;&lt;/div&gt;&lt;div style=&quot;font-size: 14px; font-weight: normal;&quot;&gt;&amp;nbsp; &lt;span style=&quot;color: #74b0df;&quot;&gt;map_public_ip_on_launch&lt;/span&gt; = &lt;span style=&quot;color: #ce9178;&quot;&gt;&quot;true&quot;&lt;/span&gt;&lt;/div&gt;&lt;div style=&quot;font-size: 14px; font-weight: normal;&quot;&gt;&amp;nbsp; &lt;span style=&quot;color: #74b0df;&quot;&gt;cidr_block&lt;/span&gt; &amp;nbsp; &amp;nbsp; &amp;nbsp; &amp;nbsp; &amp;nbsp; &amp;nbsp; &amp;nbsp;= &lt;span style=&quot;color: #ce9178;&quot;&gt;&quot;10.0.0.0/18&quot;&lt;/span&gt;&lt;/div&gt;&lt;div style=&quot;&quot;&gt;&lt;span style=&quot;font-size: 14px; font-weight: normal;&quot;&gt;&amp;nbsp; &lt;/span&gt;&lt;span style=&quot;font-size: 14px; font-weight: normal; color: rgb(116, 176, 223);&quot;&gt;availability_zone&lt;/span&gt;&lt;span style=&quot;font-size: 14px; font-weight: normal;&quot;&gt; &amp;nbsp; &amp;nbsp; &amp;nbsp; = &lt;/span&gt;&lt;span style=&quot;color: rgb(206, 145, 120);&quot;&gt;&lt;span style=&quot;font-size: 14px; font-weight: normal;&quot;&gt;&quot;&lt;/span&gt;&lt;u style=&quot;&quot;&gt;&lt;font style=&quot;font-size: 16px;&quot;&gt;ap-southeast-1a&lt;/font&gt;&lt;/u&gt;&lt;span style=&quot;font-size: 14px; font-weight: normal;&quot;&gt;&quot;&lt;/span&gt;&lt;/span&gt;&lt;/div&gt;&lt;span style=&quot;font-size: 14px; font-weight: normal;&quot;&gt;&lt;br&gt;&lt;/span&gt;&lt;div style=&quot;font-size: 14px; font-weight: normal;&quot;&gt;&amp;nbsp; &lt;span style=&quot;color: #74b0df;&quot;&gt;tags&lt;/span&gt; = &lt;span style=&quot;color: #dcdcdc;&quot;&gt;{&lt;/span&gt;&lt;/div&gt;&lt;div style=&quot;font-size: 14px; font-weight: normal;&quot;&gt;&amp;nbsp; &amp;nbsp; &lt;span style=&quot;color: #74b0df;&quot;&gt;Name&lt;/span&gt; = &lt;span style=&quot;color: #ce9178;&quot;&gt;&quot;two-tier-pub-sub-1&quot;&lt;/span&gt;&lt;/div&gt;&lt;div style=&quot;font-size: 14px; font-weight: normal;&quot;&gt;&amp;nbsp; &lt;span style=&quot;color: #dcdcdc;&quot;&gt;}&lt;/span&gt;&lt;/div&gt;&lt;div style=&quot;font-size: 14px; font-weight: normal;&quot;&gt;&lt;span style=&quot;color: #dcdcdc;&quot;&gt;}&lt;/span&gt;&lt;/div&gt;&lt;/div&gt;&lt;/h1&gt;" style="text;html=1;whiteSpace=wrap;overflow=hidden;rounded=0;" vertex="1" parent="1">
          <mxGeometry x="550" y="740" width="400" height="210" as="geometry" />
        </mxCell>
        <mxCell id="XZuy0qffb0nQQuMf2KQB-30" value="&lt;h1 style=&quot;margin-top: 0px;&quot;&gt;&lt;div style=&quot;color: #d4d4d4;background-color: #1e1e1e;font-family: Consolas, &#39;Courier New&#39;, monospace;font-weight: normal;font-size: 14px;line-height: 20px;white-space: pre;&quot;&gt;&lt;div&gt;&lt;span style=&quot;color: #3dc9b0;&quot;&gt;resource&lt;/span&gt; &lt;span style=&quot;color: #ce9178;&quot;&gt;&quot;aws_subnet&quot;&lt;/span&gt; &lt;span style=&quot;color: #ce9178;&quot;&gt;&quot;two-tier-pvt-sub-1&quot;&lt;/span&gt; &lt;span style=&quot;color: #dcdcdc;&quot;&gt;{&lt;/span&gt;&lt;/div&gt;&lt;div&gt;&amp;nbsp; &lt;span style=&quot;color: #74b0df;&quot;&gt;vpc_id&lt;/span&gt; &amp;nbsp; &amp;nbsp; &amp;nbsp; &amp;nbsp; &amp;nbsp; &amp;nbsp; &amp;nbsp; &amp;nbsp; &amp;nbsp;= &lt;span style=&quot;color: #74b0df;&quot;&gt;aws_vpc&lt;/span&gt;&lt;span style=&quot;color: #dcdcdc;&quot;&gt;.&lt;/span&gt;&lt;span style=&quot;color: #74b0df;&quot;&gt;two-tier-vpc&lt;/span&gt;&lt;span style=&quot;color: #dcdcdc;&quot;&gt;.&lt;/span&gt;&lt;span style=&quot;color: #74b0df;&quot;&gt;id&lt;/span&gt;&lt;/div&gt;&lt;div&gt;&amp;nbsp; &lt;span style=&quot;color: #74b0df;&quot;&gt;map_public_ip_on_launch&lt;/span&gt; = &lt;span style=&quot;color: #569cd6;&quot;&gt;false&lt;/span&gt;&lt;/div&gt;&lt;div&gt;&amp;nbsp; &lt;span style=&quot;color: #74b0df;&quot;&gt;cidr_block&lt;/span&gt; &amp;nbsp; &amp;nbsp; &amp;nbsp; &amp;nbsp; &amp;nbsp; &amp;nbsp; &amp;nbsp;= &lt;span style=&quot;color: #ce9178;&quot;&gt;&quot;10.0.128.0/18&quot;&lt;/span&gt;&lt;/div&gt;&lt;div&gt;&amp;nbsp; &lt;span style=&quot;color: #74b0df;&quot;&gt;availability_zone&lt;/span&gt; &amp;nbsp; &amp;nbsp; &amp;nbsp; = &lt;span style=&quot;color: #ce9178;&quot;&gt;&quot;ap-southeast-1a&quot;&lt;/span&gt;&lt;/div&gt;&lt;br&gt;&lt;div&gt;&amp;nbsp; &lt;span style=&quot;color: #74b0df;&quot;&gt;tags&lt;/span&gt; = &lt;span style=&quot;color: #dcdcdc;&quot;&gt;{&lt;/span&gt;&lt;/div&gt;&lt;div&gt;&amp;nbsp; &amp;nbsp; &lt;span style=&quot;color: #74b0df;&quot;&gt;Name&lt;/span&gt; = &lt;span style=&quot;color: #ce9178;&quot;&gt;&quot;two-tier-pvt-sub-1&quot;&lt;/span&gt;&lt;/div&gt;&lt;div&gt;&amp;nbsp; &lt;span style=&quot;color: #dcdcdc;&quot;&gt;}&lt;/span&gt;&lt;/div&gt;&lt;div&gt;&lt;span style=&quot;color: #dcdcdc;&quot;&gt;}&lt;/span&gt;&lt;/div&gt;&lt;/div&gt;&lt;/h1&gt;" style="text;html=1;whiteSpace=wrap;overflow=hidden;rounded=0;" vertex="1" parent="1">
          <mxGeometry x="550" y="1280" width="400" height="210" as="geometry" />
        </mxCell>
        <mxCell id="XZuy0qffb0nQQuMf2KQB-31" value="AWS Cloud" style="points=[[0,0],[0.25,0],[0.5,0],[0.75,0],[1,0],[1,0.25],[1,0.5],[1,0.75],[1,1],[0.75,1],[0.5,1],[0.25,1],[0,1],[0,0.75],[0,0.5],[0,0.25]];outlineConnect=0;gradientColor=none;html=1;whiteSpace=wrap;fontSize=12;fontStyle=0;container=1;pointerEvents=0;collapsible=0;recursiveResize=0;shape=mxgraph.aws4.group;grIcon=mxgraph.aws4.group_aws_cloud_alt;strokeColor=#232F3E;fillColor=none;verticalAlign=top;align=left;spacingLeft=30;fontColor=#232F3E;dashed=0;textShadow=0;sketch=1;curveFitting=1;jiggle=2;" vertex="1" parent="1">
          <mxGeometry x="25" y="1170" width="455" height="510" as="geometry" />
        </mxCell>
        <mxCell id="XZuy0qffb0nQQuMf2KQB-32" value="&lt;span style=&quot;color: rgb(51, 65, 85); font-family: Inter, &amp;quot;Helvetica Neue&amp;quot;, Helvetica, Arial, sans-serif; font-size: 14px; font-weight: 600; letter-spacing: -0.144px; text-wrap-mode: nowrap; background-color: rgb(249, 248, 255);&quot;&gt;Asia Pacific (Singapore) Region&lt;/span&gt;" style="points=[[0,0],[0.25,0],[0.5,0],[0.75,0],[1,0],[1,0.25],[1,0.5],[1,0.75],[1,1],[0.75,1],[0.5,1],[0.25,1],[0,1],[0,0.75],[0,0.5],[0,0.25]];outlineConnect=0;gradientColor=none;html=1;whiteSpace=wrap;fontSize=12;fontStyle=0;container=1;pointerEvents=0;collapsible=0;recursiveResize=0;shape=mxgraph.aws4.group;grIcon=mxgraph.aws4.group_region;strokeColor=#00A4A6;fillColor=none;verticalAlign=top;align=left;spacingLeft=30;fontColor=#147EBA;dashed=1;strokeWidth=2;sketch=1;curveFitting=1;jiggle=2;" vertex="1" parent="XZuy0qffb0nQQuMf2KQB-31">
          <mxGeometry x="20" y="40" width="410" height="460" as="geometry" />
        </mxCell>
        <mxCell id="XZuy0qffb0nQQuMf2KQB-33" value="&lt;b&gt;&lt;font color=&quot;#000000&quot;&gt;VPC&lt;/font&gt;&lt;/b&gt;" style="points=[[0,0],[0.25,0],[0.5,0],[0.75,0],[1,0],[1,0.25],[1,0.5],[1,0.75],[1,1],[0.75,1],[0.5,1],[0.25,1],[0,1],[0,0.75],[0,0.5],[0,0.25]];outlineConnect=0;gradientColor=none;html=1;whiteSpace=wrap;fontSize=12;fontStyle=0;container=1;pointerEvents=0;collapsible=0;recursiveResize=0;shape=mxgraph.aws4.group;grIcon=mxgraph.aws4.group_vpc2;strokeColor=#8C4FFF;fillColor=none;verticalAlign=top;align=left;spacingLeft=30;fontColor=#AAB7B8;dashed=0;sketch=1;curveFitting=1;jiggle=2;" vertex="1" parent="XZuy0qffb0nQQuMf2KQB-32">
          <mxGeometry x="30" y="30" width="360" height="410" as="geometry" />
        </mxCell>
        <mxCell id="XZuy0qffb0nQQuMf2KQB-37" value="&lt;b&gt;&lt;font style=&quot;font-size: 15px;&quot;&gt;Availability Zone&lt;/font&gt;&lt;/b&gt;" style="fillColor=none;strokeColor=#147EBA;dashed=1;verticalAlign=top;fontStyle=0;fontColor=#147EBA;whiteSpace=wrap;html=1;strokeWidth=2;" vertex="1" parent="XZuy0qffb0nQQuMf2KQB-33">
          <mxGeometry x="20" y="40" width="320" height="350" as="geometry" />
        </mxCell>
        <mxCell id="XZuy0qffb0nQQuMf2KQB-34" value="Public subnet" style="points=[[0,0],[0.25,0],[0.5,0],[0.75,0],[1,0],[1,0.25],[1,0.5],[1,0.75],[1,1],[0.75,1],[0.5,1],[0.25,1],[0,1],[0,0.75],[0,0.5],[0,0.25]];outlineConnect=0;gradientColor=none;html=1;whiteSpace=wrap;fontSize=12;fontStyle=0;container=1;pointerEvents=0;collapsible=0;recursiveResize=0;shape=mxgraph.aws4.group;grIcon=mxgraph.aws4.group_security_group;grStroke=0;strokeColor=#7AA116;fillColor=#F2F6E8;verticalAlign=top;align=left;spacingLeft=30;fontColor=#248814;dashed=0;" vertex="1" parent="XZuy0qffb0nQQuMf2KQB-33">
          <mxGeometry x="40" y="70" width="270" height="130" as="geometry" />
        </mxCell>
        <mxCell id="XZuy0qffb0nQQuMf2KQB-36" value="Private subnet" style="points=[[0,0],[0.25,0],[0.5,0],[0.75,0],[1,0],[1,0.25],[1,0.5],[1,0.75],[1,1],[0.75,1],[0.5,1],[0.25,1],[0,1],[0,0.75],[0,0.5],[0,0.25]];outlineConnect=0;gradientColor=none;html=1;whiteSpace=wrap;fontSize=12;fontStyle=0;container=1;pointerEvents=0;collapsible=0;recursiveResize=0;shape=mxgraph.aws4.group;grIcon=mxgraph.aws4.group_security_group;grStroke=0;strokeColor=#1b4041;fillColor=#E6F6F7;verticalAlign=top;align=left;spacingLeft=30;fontColor=#147EBA;dashed=0;" vertex="1" parent="XZuy0qffb0nQQuMf2KQB-33">
          <mxGeometry x="40" y="240" width="270" height="130" as="geometry" />
        </mxCell>
        <mxCell id="XZuy0qffb0nQQuMf2KQB-35" value="" style="curved=1;endArrow=classic;html=1;rounded=0;entryX=-0.005;entryY=0.719;entryDx=0;entryDy=0;strokeWidth=2;sketch=1;curveFitting=1;jiggle=2;entryPerimeter=0;" edge="1" parent="XZuy0qffb0nQQuMf2KQB-33" target="XZuy0qffb0nQQuMf2KQB-30">
          <mxGeometry width="50" height="50" relative="1" as="geometry">
            <mxPoint x="310" y="315" as="sourcePoint" />
            <mxPoint x="500" y="220" as="targetPoint" />
            <Array as="points">
              <mxPoint x="360" y="315" />
              <mxPoint x="390" y="265" />
              <mxPoint x="440" y="275" />
            </Array>
          </mxGeometry>
        </mxCell>
        <mxCell id="XZuy0qffb0nQQuMf2KQB-38" value="AWS Cloud" style="points=[[0,0],[0.25,0],[0.5,0],[0.75,0],[1,0],[1,0.25],[1,0.5],[1,0.75],[1,1],[0.75,1],[0.5,1],[0.25,1],[0,1],[0,0.75],[0,0.5],[0,0.25]];outlineConnect=0;gradientColor=none;html=1;whiteSpace=wrap;fontSize=12;fontStyle=0;container=1;pointerEvents=0;collapsible=0;recursiveResize=0;shape=mxgraph.aws4.group;grIcon=mxgraph.aws4.group_aws_cloud_alt;strokeColor=#232F3E;fillColor=none;verticalAlign=top;align=left;spacingLeft=30;fontColor=#232F3E;dashed=0;textShadow=0;sketch=1;curveFitting=1;jiggle=2;" vertex="1" parent="1">
          <mxGeometry x="25" y="620" width="455" height="510" as="geometry" />
        </mxCell>
        <mxCell id="XZuy0qffb0nQQuMf2KQB-39" value="&lt;span style=&quot;color: rgb(51, 65, 85); font-family: Inter, &amp;quot;Helvetica Neue&amp;quot;, Helvetica, Arial, sans-serif; font-size: 14px; font-weight: 600; letter-spacing: -0.144px; text-wrap-mode: nowrap; background-color: rgb(249, 248, 255);&quot;&gt;Asia Pacific (Singapore) Region&lt;/span&gt;" style="points=[[0,0],[0.25,0],[0.5,0],[0.75,0],[1,0],[1,0.25],[1,0.5],[1,0.75],[1,1],[0.75,1],[0.5,1],[0.25,1],[0,1],[0,0.75],[0,0.5],[0,0.25]];outlineConnect=0;gradientColor=none;html=1;whiteSpace=wrap;fontSize=12;fontStyle=0;container=1;pointerEvents=0;collapsible=0;recursiveResize=0;shape=mxgraph.aws4.group;grIcon=mxgraph.aws4.group_region;strokeColor=#00A4A6;fillColor=none;verticalAlign=top;align=left;spacingLeft=30;fontColor=#147EBA;dashed=1;strokeWidth=2;sketch=1;curveFitting=1;jiggle=2;" vertex="1" parent="XZuy0qffb0nQQuMf2KQB-38">
          <mxGeometry x="20" y="40" width="410" height="460" as="geometry" />
        </mxCell>
        <mxCell id="XZuy0qffb0nQQuMf2KQB-40" value="&lt;b&gt;&lt;font color=&quot;#000000&quot;&gt;VPC&lt;/font&gt;&lt;/b&gt;" style="points=[[0,0],[0.25,0],[0.5,0],[0.75,0],[1,0],[1,0.25],[1,0.5],[1,0.75],[1,1],[0.75,1],[0.5,1],[0.25,1],[0,1],[0,0.75],[0,0.5],[0,0.25]];outlineConnect=0;gradientColor=none;html=1;whiteSpace=wrap;fontSize=12;fontStyle=0;container=1;pointerEvents=0;collapsible=0;recursiveResize=0;shape=mxgraph.aws4.group;grIcon=mxgraph.aws4.group_vpc2;strokeColor=#8C4FFF;fillColor=none;verticalAlign=top;align=left;spacingLeft=30;fontColor=#AAB7B8;dashed=0;sketch=1;curveFitting=1;jiggle=2;" vertex="1" parent="XZuy0qffb0nQQuMf2KQB-39">
          <mxGeometry x="30" y="30" width="360" height="410" as="geometry" />
        </mxCell>
        <mxCell id="XZuy0qffb0nQQuMf2KQB-41" value="&lt;b&gt;&lt;font style=&quot;font-size: 15px;&quot;&gt;Availability Zone&lt;/font&gt;&lt;/b&gt;" style="fillColor=none;strokeColor=#147EBA;dashed=1;verticalAlign=top;fontStyle=0;fontColor=#147EBA;whiteSpace=wrap;html=1;strokeWidth=2;" vertex="1" parent="XZuy0qffb0nQQuMf2KQB-40">
          <mxGeometry x="20" y="40" width="320" height="350" as="geometry" />
        </mxCell>
        <mxCell id="XZuy0qffb0nQQuMf2KQB-42" value="Public subnet" style="points=[[0,0],[0.25,0],[0.5,0],[0.75,0],[1,0],[1,0.25],[1,0.5],[1,0.75],[1,1],[0.75,1],[0.5,1],[0.25,1],[0,1],[0,0.75],[0,0.5],[0,0.25]];outlineConnect=0;gradientColor=none;html=1;whiteSpace=wrap;fontSize=12;fontStyle=0;container=1;pointerEvents=0;collapsible=0;recursiveResize=0;shape=mxgraph.aws4.group;grIcon=mxgraph.aws4.group_security_group;grStroke=0;strokeColor=#7AA116;fillColor=#F2F6E8;verticalAlign=top;align=left;spacingLeft=30;fontColor=#248814;dashed=0;" vertex="1" parent="XZuy0qffb0nQQuMf2KQB-40">
          <mxGeometry x="40" y="70" width="270" height="130" as="geometry" />
        </mxCell>
        <mxCell id="XZuy0qffb0nQQuMf2KQB-43" value="Private subnet" style="points=[[0,0],[0.25,0],[0.5,0],[0.75,0],[1,0],[1,0.25],[1,0.5],[1,0.75],[1,1],[0.75,1],[0.5,1],[0.25,1],[0,1],[0,0.75],[0,0.5],[0,0.25]];outlineConnect=0;gradientColor=none;html=1;whiteSpace=wrap;fontSize=12;fontStyle=0;container=1;pointerEvents=0;collapsible=0;recursiveResize=0;shape=mxgraph.aws4.group;grIcon=mxgraph.aws4.group_security_group;grStroke=0;strokeColor=#00A4A6;fillColor=#E6F6F7;verticalAlign=top;align=left;spacingLeft=30;fontColor=#147EBA;dashed=0;" vertex="1" parent="XZuy0qffb0nQQuMf2KQB-40">
          <mxGeometry x="40" y="240" width="270" height="130" as="geometry" />
        </mxCell>
        <mxCell id="XZuy0qffb0nQQuMf2KQB-29" value="" style="curved=1;endArrow=classic;html=1;rounded=0;entryX=0.005;entryY=0.467;entryDx=0;entryDy=0;strokeWidth=2;sketch=1;curveFitting=1;jiggle=2;exitX=1;exitY=0.5;exitDx=0;exitDy=0;entryPerimeter=0;" edge="1" parent="XZuy0qffb0nQQuMf2KQB-40" target="XZuy0qffb0nQQuMf2KQB-28">
          <mxGeometry width="50" height="50" relative="1" as="geometry">
            <mxPoint x="295" y="144" as="sourcePoint" />
            <mxPoint x="481" y="130" as="targetPoint" />
            <Array as="points">
              <mxPoint x="351" y="140" />
              <mxPoint x="381" y="90" />
              <mxPoint x="431" y="100" />
            </Array>
          </mxGeometry>
        </mxCell>
        <mxCell id="XZuy0qffb0nQQuMf2KQB-45" value="" style="outlineConnect=0;dashed=0;verticalLabelPosition=bottom;verticalAlign=top;align=center;html=1;shape=mxgraph.aws3.internet_gateway;fillColor=#F58536;gradientColor=none;" vertex="1" parent="1">
          <mxGeometry x="770" y="1700" width="69" height="72" as="geometry" />
        </mxCell>
        <mxCell id="XZuy0qffb0nQQuMf2KQB-46" value="" style="sketch=0;outlineConnect=0;fontColor=#232F3E;gradientColor=none;fillColor=#8C4FFF;strokeColor=none;dashed=0;verticalLabelPosition=bottom;verticalAlign=top;align=center;html=1;fontSize=12;fontStyle=0;aspect=fixed;pointerEvents=1;shape=mxgraph.aws4.route_table;" vertex="1" parent="1">
          <mxGeometry x="700" y="1930" width="78" height="76" as="geometry" />
        </mxCell>
        <mxCell id="XZuy0qffb0nQQuMf2KQB-47" value="" style="outlineConnect=0;dashed=0;verticalLabelPosition=bottom;verticalAlign=top;align=center;html=1;shape=mxgraph.aws3.route_table;fillColor=#CC0066;gradientColor=none;" vertex="1" parent="1">
          <mxGeometry x="860" y="1950" width="75" height="69" as="geometry" />
        </mxCell>
        <mxCell id="XZuy0qffb0nQQuMf2KQB-48" value="Security group" style="fillColor=none;strokeColor=#DD3522;verticalAlign=top;fontStyle=0;fontColor=#DD3522;whiteSpace=wrap;html=1;" vertex="1" parent="1">
          <mxGeometry x="1140" y="1760" width="130" height="130" as="geometry" />
        </mxCell>
        <mxCell id="XZuy0qffb0nQQuMf2KQB-49" value="" style="sketch=0;points=[[0,0,0],[0.25,0,0],[0.5,0,0],[0.75,0,0],[1,0,0],[0,1,0],[0.25,1,0],[0.5,1,0],[0.75,1,0],[1,1,0],[0,0.25,0],[0,0.5,0],[0,0.75,0],[1,0.25,0],[1,0.5,0],[1,0.75,0]];outlineConnect=0;fontColor=#232F3E;fillColor=#ED7100;strokeColor=#ffffff;dashed=0;verticalLabelPosition=bottom;verticalAlign=top;align=center;html=1;fontSize=12;fontStyle=0;aspect=fixed;shape=mxgraph.aws4.resourceIcon;resIcon=mxgraph.aws4.ec2;" vertex="1" parent="1">
          <mxGeometry x="1030" y="1940" width="78" height="78" as="geometry" />
        </mxCell>
        <mxCell id="XZuy0qffb0nQQuMf2KQB-50" value="Security group" style="fillColor=none;strokeColor=#DD3522;verticalAlign=top;fontStyle=0;fontColor=#DD3522;whiteSpace=wrap;html=1;" vertex="1" parent="1">
          <mxGeometry x="1140" y="1585" width="130" height="130" as="geometry" />
        </mxCell>
        <mxCell id="XZuy0qffb0nQQuMf2KQB-51" value="" style="image;aspect=fixed;perimeter=ellipsePerimeter;html=1;align=center;shadow=0;dashed=0;spacingTop=3;image=img/lib/active_directory/database.svg;" vertex="1" parent="1">
          <mxGeometry x="1180" y="1820" width="50" height="37" as="geometry" />
        </mxCell>
      </root>
    </mxGraphModel>
  </diagram>
  <diagram id="cSgvK6e5q8UH-73fF8L1" name="Page-2">
    <mxGraphModel dx="1434" dy="772" grid="1" gridSize="10" guides="1" tooltips="1" connect="1" arrows="1" fold="1" page="1" pageScale="1" pageWidth="850" pageHeight="1100" math="0" shadow="0">
      <root>
        <mxCell id="0" />
        <mxCell id="1" parent="0" />
      </root>
    </mxGraphModel>
  </diagram>
</mxfile>
